<?xml version="1.0" standalone="no"?><svg xmlns="http://www.w3.org/2000/svg" viewBox="0 0 1440 320"><path fill="#1B99E4" fill-opacity="1" d="M0,128L17.1,117.3C34.3,107,69,85,103,106.7C137.1,128,171,192,206,208C240,224,274,192,309,192C342.9,192,377,224,411,224C445.7,224,480,192,514,202.7C548.6,213,583,267,617,250.7C651.4,235,686,149,720,144C754.3,139,789,213,823,224C857.1,235,891,181,926,176C960,171,994,213,1029,234.7C1062.9,256,1097,256,1131,229.3C1165.7,203,1200,149,1234,149.3C1268.6,149,1303,203,1337,213.3C1371.4,224,1406,192,1423,176L1440,160L1440,320L1422.9,320C1405.7,320,1371,320,1337,320C1302.9,320,1269,320,1234,320C1200,320,1166,320,1131,320C1097.1,320,1063,320,1029,320C994.3,320,960,320,926,320C891.4,320,857,320,823,320C788.6,320,754,320,720,320C685.7,320,651,320,617,320C582.9,320,549,320,514,320C480,320,446,320,411,320C377.1,320,343,320,309,320C274.3,320,240,320,206,320C171.4,320,137,320,103,320C68.6,320,34,320,17,320L0,320Z"></path></svg>